<svg xmlns="http://www.w3.org/2000/svg" viewBox="0 0 80.6 80.03"><title>Fichier 1</title><g id="Calque_2" data-name="Calque 2"><g id="Calque_1-2" data-name="Calque 1"><path d="M61.78,21l.53-2.07a1,1,0,0,0-1.94-.49l-.53,2.09C47.43,17.82,35.4,23.42,31.57,33.86a1,1,0,0,0,.93,1.34,12.5,12.5,0,0,1,2.9.38A11,11,0,0,1,43.46,43a1,1,0,0,0,1.7.43c2.43-2.58,6.28-2.51,9.4-1.87L50.08,59.23a10.54,10.54,0,0,0-1,.88,3.19,3.19,0,0,1-5.11,0,5.14,5.14,0,0,0-7.88,0,3.19,3.19,0,0,1-5.11,0,5.14,5.14,0,0,0-7.88,0,3.19,3.19,0,0,1-5.11,0,5.15,5.15,0,0,0-7.89,0,3.32,3.32,0,0,1-2.56,1.28A3.32,3.32,0,0,1,4.95,60.1,5.26,5.26,0,0,0,1,58.26a1,1,0,0,0,0,2,3.32,3.32,0,0,1,2.56,1.28,5.26,5.26,0,0,0,3.95,1.84,5.26,5.26,0,0,0,3.94-1.84,3.2,3.2,0,0,1,5.12,0,5.15,5.15,0,0,0,7.89,0,3.19,3.19,0,0,1,5.11,0,5.15,5.15,0,0,0,7.89,0,3.19,3.19,0,0,1,5.11,0,5.25,5.25,0,0,0,3.94,1.84,4.67,4.67,0,0,0,2.71-.8L46.49,73.34C19.39,72.19,1.28,78,1,78.08A1,1,0,0,0,1.66,80C2,79.87,35.23,69.2,79.11,80a.94.94,0,0,0,.24,0,1,1,0,0,0,.24-2,168.55,168.55,0,0,0-31.06-4.63L51.82,60.5a2.83,2.83,0,0,1,1.2-.24,3.31,3.31,0,0,1,2.55,1.28,5.14,5.14,0,0,0,7.88,0,3.19,3.19,0,0,1,5.11,0,5.14,5.14,0,0,0,7.88,0A3.31,3.31,0,0,1,79,60.26a1,1,0,0,0,0-2,5.26,5.26,0,0,0-3.94,1.84,3.19,3.19,0,0,1-5.11,0,5.14,5.14,0,0,0-7.88,0,3.19,3.19,0,0,1-5.11,0A5.25,5.25,0,0,0,53,58.26a5.41,5.41,0,0,0-.64,0L56.5,42.08c3.1.94,6.57,2.77,7.42,6.31a1,1,0,0,0,1.72.44A10.91,10.91,0,0,1,76.4,46,12.44,12.44,0,0,1,79,47a1,1,0,0,0,.91,0,1,1,0,0,0,.53-.74C82,35.19,74,24.49,61.78,21ZM35.89,33.65h0A14.21,14.21,0,0,0,34,33.3C37.58,25.47,46.91,20.95,56.72,22c-4.16,2-7.65,5.57-10.23,10.59a36.88,36.88,0,0,0-2.6,6.61A13.47,13.47,0,0,0,35.89,33.65ZM56,39.87a19.89,19.89,0,0,0-4.87-.67,10.82,10.82,0,0,0-5.54,1.36c1.11-4.25,4.89-15.14,14.71-17.75,7.33,6.94,5.51,18.24,4.47,22.56C63.2,42.82,60.23,40.94,56,39.87Zm22.53,4.73a13.85,13.85,0,0,0-11.69.72A36.92,36.92,0,0,0,67.8,38c.14-5.65-1.23-10.49-4-14.22C73.15,27.52,79.15,35.85,78.55,44.61Z"/><path d="M16.54,24.11A7.73,7.73,0,1,0,8.8,16.38,7.74,7.74,0,0,0,16.54,24.11Zm0-13.47a5.73,5.73,0,1,1-5.74,5.74A5.74,5.74,0,0,1,16.54,10.64Z"/><path d="M16.54,5.23a1,1,0,0,0,1-1V1a1,1,0,0,0-2,0V4.23A1,1,0,0,0,16.54,5.23Z"/><path d="M10.68,5.68a1,1,0,0,0,.91.59A1,1,0,0,0,12,6.19a1,1,0,0,0,.51-1.32L11.2,1.92a1,1,0,0,0-1.83.81Z"/><path d="M6.84,9A1,1,0,0,0,8.18,7.5L5.78,5.34A1,1,0,1,0,4.44,6.83Z"/><path d="M1.6,12.57l3.07,1a1,1,0,1,0,.62-1.9l-3.07-1a1,1,0,0,0-.62,1.9Z"/><path d="M1.24,19h.1l3.21-.34a1,1,0,1,0-.21-2L1.14,17a1,1,0,0,0,.1,2Z"/><path d="M6.88,21.95a1,1,0,0,0-1.37-.37L2.72,23.2a1,1,0,1,0,1,1.73l2.8-1.61A1,1,0,0,0,6.88,21.95Z"/><path d="M6.91,29.62a1,1,0,0,0,1.4-.22l1.9-2.61a1,1,0,0,0-1.62-1.17l-1.9,2.61A1,1,0,0,0,6.91,29.62Z"/><path d="M13,28.05l-.67,3.16a1,1,0,0,0,.77,1.19l.21,0a1,1,0,0,0,1-.79L15,28.47a1,1,0,1,0-2-.42Z"/><path d="M18.85,27.28a1,1,0,0,0-.77,1.19l.67,3.16a1,1,0,0,0,1,.79l.21,0a1,1,0,0,0,.77-1.19L20,28.05A1,1,0,0,0,18.85,27.28Z"/><path d="M23.09,25.4a1,1,0,0,0-.22,1.4l1.9,2.61a1,1,0,0,0,1.62-1.18l-1.9-2.61A1,1,0,0,0,23.09,25.4Z"/><path d="M27.56,21.58a1,1,0,1,0-1,1.73l2.79,1.61a1,1,0,1,0,1-1.73Z"/><path d="M28.72,16.65a1,1,0,0,0-.21,2l3.21.34h.1a1,1,0,0,0,.1-2Z"/><path d="M27.14,12.93a1,1,0,0,0,1.26.64l3.07-1a1,1,0,0,0-.62-1.9l-3.07,1A1,1,0,0,0,27.14,12.93Z"/><path d="M25.56,9.25A1,1,0,0,0,26.23,9l2.4-2.16a1,1,0,1,0-1.34-1.49L24.9,7.5a1,1,0,0,0,.67,1.74Z"/><path d="M21.07,6.19a1,1,0,0,0,.41.09,1,1,0,0,0,.91-.59L23.7,2.74a1,1,0,0,0-1.83-.81L20.56,4.87A1,1,0,0,0,21.07,6.19Z"/></g></g></svg>