<svg xmlns="http://www.w3.org/2000/svg" viewBox="0 0 75.31 78.6"><defs><style>.cls-1{fill:#fff;}</style></defs><title>Fichier 1</title><g id="Calque_2" data-name="Calque 2"><g id="Calque_1-2" data-name="Calque 1"><path class="cls-1" d="M70.41,10c-6.2-6.6-17.1-10-32.6-10h-.3c-15.4,0-26.4,3.4-32.6,10C-.39,15.7,0,21.6,0,21.8V77.6a.94.94,0,0,0,1,1,.94.94,0,0,0,1-1V64.8h71.3V77.6a1,1,0,1,0,2,0V21.9C75.31,21.6,75.71,15.7,70.41,10ZM2,40.1c1.3-.5,8.6-2.9,20.1-4.1a138.22,138.22,0,0,1,51.2,4.2V52.3H2Zm31.1-6.8A122.72,122.72,0,0,0,9.61,36V26.6a2.26,2.26,0,0,1,2.3-2.3h18.9a2.26,2.26,0,0,1,2.3,2.3Zm32.7,3a140.51,140.51,0,0,0-23.5-2.9V26.7a2.26,2.26,0,0,1,2.3-2.3h18.9a2.26,2.26,0,0,1,2.3,2.3ZM6.41,11.4C12.11,5.3,22.91,2,37.71,2s25.5,3.3,31.2,9.4a15.09,15.09,0,0,1,4.4,10.4V38.1c-1.9-.5-3.7-.9-5.6-1.4V26.6a4.27,4.27,0,0,0-4.3-4.3H44.51a4.27,4.27,0,0,0-4.3,4.3v6.7c-1.7,0-3.4-.1-5.1,0V26.7a4.27,4.27,0,0,0-4.3-4.3H11.91a4.27,4.27,0,0,0-4.3,4.3v9.9c-2.6.6-4.5,1.2-5.6,1.5V21.8A15,15,0,0,1,6.41,11.4ZM2,62.8V54.3h71.3v8.5Z"/></g></g></svg>