<svg xmlns="http://www.w3.org/2000/svg" viewBox="0 0 56.82 79.81"><defs><style>.cls-1{fill:#1e3f68;}</style></defs><title>Fichier 1</title><g id="Calque_2" data-name="Calque 2"><g id="Calque_1-2" data-name="Calque 1"><g id="Calque_2-2" data-name="Calque 2"><g id="Calque_1-2-2" data-name="Calque 1-2"><path class="cls-1" d="M28.79,40.68c.48-.2,11.7-5,13.75-14.24,1.25-5.63-1.82-9.64-5.2-11A7.58,7.58,0,0,0,28.4,18a7.58,7.58,0,0,0-8.94-2.6c-3.38,1.34-6.45,5.35-5.2,11,2.06,9.25,13.28,14,13.75,14.24a1,1,0,0,0,.77,0ZM16.22,26c-1-4.49,1.36-7.65,4-8.69a5.62,5.62,0,0,1,2.07-.4c1.8,0,3.78.9,5.27,3.4a1,1,0,0,0,1.72,0c2.1-3.53,5.17-3.86,7.35-3,2.62,1,5,4.2,4,8.69C39,33.34,30.34,37.75,28.41,38.66,26.47,37.75,17.86,33.36,16.22,26Z"/><path class="cls-1" d="M27.68,79.5a1,1,0,0,0,.72.31h0a1,1,0,0,0,.73-.32A176.77,176.77,0,0,0,42.94,61.86c9.21-13.49,13.88-24.75,13.88-33.45A28.41,28.41,0,0,0,0,28.41C0,37.59,4.67,49,13.88,62.29A159.67,159.67,0,0,0,27.68,79.5ZM28.41,2A26.44,26.44,0,0,1,54.82,28.41c0,18-22.1,44-26.42,48.91C24,72.55,2,47.43,2,28.41A26.44,26.44,0,0,1,28.41,2Z"/></g></g></g></g></svg>