<svg xmlns="http://www.w3.org/2000/svg" viewBox="0 0 78.62 78.63"><defs><style>.cls-1{fill:#1e3f68;}</style></defs><title>Fichier 1</title><g id="Calque_2" data-name="Calque 2"><g id="Calque_1-2" data-name="Calque 1"><g id="Calque_2-2" data-name="Calque 2"><g id="Calque_1-2-2" data-name="Calque 1-2"><path class="cls-1" d="M26.6,78.63A26.49,26.49,0,0,0,53.1,53a26.23,26.23,0,0,0,17.8-7.8,26.52,26.52,0,1,0-45.3-19.7,26.23,26.23,0,0,0-17.8,7.8,26.56,26.56,0,0,0,0,37.56l0,0A26.82,26.82,0,0,0,26.6,78.63Zm-.5-46.7a26.45,26.45,0,0,0,21,20.7,19.94,19.94,0,0,1-6,14A20.58,20.58,0,0,1,12,37.53a20.12,20.12,0,0,1,14-6A1.58,1.58,0,0,1,26.1,31.93Zm19.2,1.4A26.25,26.25,0,0,0,31.6,26a19.94,19.94,0,0,1,6-14,20.5,20.5,0,1,1,15,35A26,26,0,0,0,45.3,33.33ZM34.8,9.23a24.54,24.54,0,1,1,18.3,41.9v-.2c0-.6-.1-1.2-.1-1.8a22.08,22.08,0,0,0,15.1-6.6,22.63,22.63,0,1,0-38.5-15.6h0a17.79,17.79,0,0,0,.8,5.5,22.35,22.35,0,0,0,5.8,10.1,23.12,23.12,0,0,0,10.5,6h.1l.3,2.1A24.31,24.31,0,0,1,34.8,44a24.89,24.89,0,0,1-6.7-12.3,26.48,26.48,0,0,1-.5-5h0A24.16,24.16,0,0,1,34.8,9.23Zm-2.4,23.2a19.9,19.9,0,0,1,8.7,5.2,21.1,21.1,0,0,1,5.2,8.7,19.9,19.9,0,0,1-8.7-5.2A19.9,19.9,0,0,1,32.4,32.43ZM9.2,34.73a24.72,24.72,0,0,1,16.4-7.2,15,15,0,0,0,.2,2,21.7,21.7,0,1,0,6.5.6H32c-.1-.6-.2-1.4-.3-2.1A23.74,23.74,0,0,1,44,34.73a24.51,24.51,0,0,1,6.9,14c.1.4.1.8.2,1.2A24.54,24.54,0,0,1,9.3,69.33,24.29,24.29,0,0,1,8.95,35Z"/></g></g></g></g></svg>