<svg xmlns="http://www.w3.org/2000/svg" viewBox="0 0 79.26 79.72"><defs><style>.cls-1{fill:#1e3f68;}</style></defs><title>Fichier 1</title><g id="Calque_2" data-name="Calque 2"><g id="Calque_1-2" data-name="Calque 1"><g id="Calque_2-2" data-name="Calque 2"><g id="Calque_1-2-2" data-name="Calque 1-2"><path class="cls-1" d="M76.94,41.45,58.73,23.24,66.6,10.37A1,1,0,0,0,66.27,9l-.1-.05C65.44,8.6,60.78,7,51.46,16L42.14,6.64a8,8,0,0,0-11.27,0L21.7,15.81,9.39,1.76a5.4,5.4,0,0,0-7.63-.34l-.18.17a5.4,5.4,0,0,0,0,7.64l.19.18,14,12.32L7.72,29.79a8,8,0,0,0,0,11.27L26.6,59.94,19.15,72.11a5.09,5.09,0,0,0,8.68,5.31L34,67.34l8.52,8.52a8,8,0,0,0,11.27,0L76.94,52.72A8,8,0,0,0,76.94,41.45Zm-38,10.3-2.07-1.26,2.57-4.2a1,1,0,0,0-.33-1.37l-4.85-3C51.21,14.48,60.82,11,64.07,10.68ZM9.13,39.65a6,6,0,0,1,0-8.44L18,22.38A1,1,0,0,0,18,21l0,0L3.2,7.92A3.41,3.41,0,1,1,7.9,3.09l13,14.85a1,1,0,0,0,.72.34.94.94,0,0,0,.74-.29l9.93-9.93a6,6,0,0,1,8.44,0L50,17.37C45.21,22.32,39.23,30,32,41.74a1,1,0,0,0,.33,1.37l4.85,3-2,3.35L34.46,49a1,1,0,0,0-1.37.33l-5.42,8.85Zm17,36.73a3.09,3.09,0,0,1-4.25,1h0a3.09,3.09,0,0,1-1-4.25L34.27,51.24l5.27,3.23Zm26.25-1.93a6,6,0,0,1-8.44,0l-8.86-8.86,6.69-10.94a1,1,0,0,0-.33-1.37l-.79-.49,17-27.8L75.53,42.86a6,6,0,0,1,0,8.44Z"/></g></g></g></g></svg>