<svg xmlns="http://www.w3.org/2000/svg" viewBox="0 0 80 80"><defs><style>.cls-1{fill:#fff;}</style></defs><title>Fichier 1</title><g id="Calque_2" data-name="Calque 2"><g id="Calque_1-2" data-name="Calque 1"><path class="cls-1" d="M51,41.82H29a1,1,0,0,0-1,1v6.72a1,1,0,0,0,1,1H51a1,1,0,0,0,1-1V42.82A1,1,0,0,0,51,41.82Zm-1,6.72H30V43.82H50v4.72Z"/><path class="cls-1" d="M15.64,40.33a5.85,5.85,0,1,0,5.85,5.85A5.86,5.86,0,0,0,15.64,40.33Zm0,9.7a3.85,3.85,0,1,1,3.85-3.85A3.86,3.86,0,0,1,15.64,50Z"/><path class="cls-1" d="M64.36,40.33a5.85,5.85,0,1,0,5.85,5.85A5.86,5.86,0,0,0,64.36,40.33Zm0,9.7a3.85,3.85,0,1,1,3.85-3.85A3.86,3.86,0,0,1,64.36,50Z"/><path class="cls-1" d="M79,59.12H77.52V39.58a9.93,9.93,0,0,0-8.08-9.74L65.21,6.9A8.05,8.05,0,0,0,57.56,0H22.44a8,8,0,0,0-7.65,6.9L10.56,29.84a9.93,9.93,0,0,0-8.08,9.74V59.12H1a1,1,0,0,0-1,1v5.7a1,1,0,0,0,1,1H6.2v7.72a5.46,5.46,0,0,0,10.92,0V66.82H62.88v7.72a5.46,5.46,0,1,0,10.92,0V66.82H79a1,1,0,0,0,1-1v-5.7A1,1,0,0,0,79,59.12ZM16.76,7.26A6.06,6.06,0,0,1,22.44,2H57.56a6.06,6.06,0,0,1,5.69,5.26l4.13,22.4H36.26a8.87,8.87,0,0,0-17.71,0H12.63Zm17.5,22.4H20.55a6.87,6.87,0,0,1,13.71,0ZM4.48,39.58a7.93,7.93,0,0,1,7.92-7.92H67.6a7.93,7.93,0,0,1,7.92,7.92V59.12h-71Zm10.64,35a3.46,3.46,0,0,1-6.92,0V66.82h6.92Zm56.68,0a3.46,3.46,0,1,1-6.92,0V66.82H71.8ZM78,64.82H2v-3.7H78Z"/></g></g></svg>