<svg xmlns="http://www.w3.org/2000/svg" viewBox="0 0 80.02 80"><title>Fichier 1</title><g id="Calque_2" data-name="Calque 2"><g id="Calque_1-2" data-name="Calque 1"><path d="M2.07,65.2v2.13H1.13a1,1,0,0,0-1,1V79a1,1,0,0,0,1,1H79a1,1,0,0,0,1-1V68.33a1,1,0,0,0-1-1H77.93V65.2a38,38,0,0,0-34.7-37.78,7,7,0,1,0-6.46,0A38,38,0,0,0,2.07,65.2ZM78,78H2.13V69.33H78ZM35,21.18a5,5,0,1,1,5,5A5,5,0,0,1,35,21.18Zm5,8.09A36,36,0,0,1,75.93,65.2v2.13H4.07V65.2A36,36,0,0,1,40,29.27Z"/><path d="M12.21,58.6l.18,0a1,1,0,0,0,1-.82A25,25,0,0,1,31.3,38.26a1,1,0,0,0-.53-1.93A27,27,0,0,0,11.4,57.44,1,1,0,0,0,12.21,58.6Z"/><path d="M73,.13a1,1,0,0,0-1.36.39L62.56,16.87a1,1,0,0,0,1.75,1L73.42,1.49A1,1,0,0,0,73,.13Z"/><path d="M68.3,23.13a1,1,0,0,0,1.31.53l9.8-4.13a1,1,0,0,0-.78-1.84l-9.8,4.13A1,1,0,0,0,68.3,23.13Z"/><path d="M8.35.85a1,1,0,0,0-1.75,1l9.12,16.36a1,1,0,0,0,1.75-1Z"/><path d="M.08,18.56a1,1,0,0,0,.53,1.31L10.41,24a1,1,0,1,0,.78-1.84L1.39,18A1,1,0,0,0,.08,18.56Z"/></g></g></svg>