<svg xmlns="http://www.w3.org/2000/svg" viewBox="0 0 80 80"><defs><style>.cls-1{fill:#fff;}</style></defs><title>Fichier 2</title><g id="Calque_2" data-name="Calque 2"><g id="Calque_1-2" data-name="Calque 1"><path class="cls-1" d="M.59,68.08l11.13,5,.08,0V79a1,1,0,0,0,1,1H67.21a1,1,0,0,0,1-1V73.1l.08,0,11.13-5a1,1,0,0,0,.59-.91V19.83C80,12.41,61.37,6.7,57.26,5.53l0,0a1,1,0,0,0-.2-1.25l-4.49-4-.06,0h0A.92.92,0,0,0,51.9,0H27.85a1,1,0,0,0-.61.2h0l-.06,0-4.49,4a1,1,0,0,0-.2,1.25l.05.09C18,6.89,0,12.53,0,19.83V67.17A1,1,0,0,0,.59,68.08ZM52,2.46l3.09,2.74L45.93,21.1,41.65,16ZM49.88,2l-10,13-10-13ZM27.7,2.46,38.1,16,33.82,21.1,24.61,5.21ZM2,19.83C2,15.1,15.1,9.73,23.56,7.38l9.25,16a1,1,0,0,0,1.63.14L39.88,17l5.43,6.5a1,1,0,0,0,.77.36h.09a1,1,0,0,0,.78-.5l9.28-16C64.68,9.64,78,15.06,78,19.83V66.52l-9.79,4.4V33.17a1,1,0,0,0-2,0V78H13.79V33.17a1,1,0,0,0-2,0V70.92L2,66.52Z"/></g></g></svg>