<svg xmlns="http://www.w3.org/2000/svg" viewBox="0 0 71.17 81.5"><title>Fichier 1</title><g id="Calque_2" data-name="Calque 2"><g id="Calque_1-2" data-name="Calque 1"><path d="M35.42,7.1h0a.94.94,0,0,0,1-1l.1-5.1a1,1,0,0,0-2,0l-.1,5.1A1,1,0,0,0,35.42,7.1Z"/><path d="M38.82,9.8a1.08,1.08,0,0,0,.7-.3L43.22,6a1,1,0,0,0-1.4-1.4l-3.7,3.5a1,1,0,0,0,0,1.4A1.08,1.08,0,0,0,38.82,9.8Z"/><path d="M31.42,9.5a1,1,0,0,0,1.4,0,1,1,0,0,0,0-1.4l-3.7-3.5A1,1,0,0,0,27.72,6Z"/><path d="M47.32,49.8c2.8,3.6,5.8,5.6,8.5,5.6h.4L61.72,78l-6.3,1.5a1,1,0,0,0-.7,1.2,1,1,0,0,0,1,.8h.2L70.42,78a1,1,0,1,0-.5-1.9l-6.3,1.5L58.12,55c2.6-1.2,4.5-4.3,5.4-9.1.9-5,.5-11.2-1-17.6-1-3.9-3.8-13.4-5.5-17a1,1,0,0,0-1.1-.5l-18,4.4a1,1,0,0,0-.8,1c.1,4,2,13.7,3,17.6A43.75,43.75,0,0,0,47.32,49.8Zm14.3-4.3c-.8,4.4-2.5,7.2-4.8,7.8s-5.2-1.1-7.9-4.7a41.53,41.53,0,0,1-6.8-15.3c-.4-1.8-1.1-4.8-1.7-7.9l18-4.3c.9,3,1.7,5.9,2.1,7.6A43,43,0,0,1,61.62,45.5Zm-6.1-32.7c.7,1.6,1.5,3.9,2.3,6.3L40,23.3c-.4-2.5-.8-4.8-.9-6.5Z"/><path d="M55.92,26.4a1,1,0,0,0-.7,1.2c2.2,8.8,1.8,16.3.9,18.5a1,1,0,0,0,.5,1.3.6.6,0,0,0,.4.1.87.87,0,0,0,.9-.6c1.1-2.6,1.5-10.4-.8-19.8A1,1,0,0,0,55.92,26.4Z"/><path d="M.72,77.9l14.5,3.5h.2a1.05,1.05,0,0,0,1-.8,1,1,0,0,0-.7-1.2l-6.3-1.5,5.5-22.6h.4c2.8,0,5.8-1.9,8.5-5.6,3.1-4,5.6-9.7,7.2-16.1,1-3.9,2.9-13.7,3-17.6a1,1,0,0,0-.8-1l-18-4.4a1,1,0,0,0-1.1.5c-1.7,3.6-4.5,13.1-5.5,17a43.06,43.06,0,0,0-1,17.6c.8,4.7,2.7,7.9,5.4,9.1L7.52,77.4l-6.3-1.5a1,1,0,0,0-1.2.7A1.15,1.15,0,0,0,.72,77.9Zm15-65.1,16.4,4c-.1,1.7-.5,4-.9,6.5l-17.8-4.2C14.22,16.7,15,14.4,15.72,12.8ZM9.62,45.5a42.89,42.89,0,0,1,1-16.8c.4-1.8,1.2-4.7,2.1-7.6l18,4.3c-.6,3.1-1.2,6.1-1.7,7.9a42.44,42.44,0,0,1-6.8,15.3c-2.7,3.5-5.6,5.2-7.9,4.7C12.22,52.7,10.42,49.8,9.62,45.5Z"/><path d="M15.22,46.2c-.9-2.3-1.3-9.7.9-18.5a1,1,0,1,0-1.9-.5c-2.3,9.4-1.8,17.2-.8,19.8a1,1,0,0,0,.9.6.6.6,0,0,0,.4-.1A1.09,1.09,0,0,0,15.22,46.2Z"/></g></g></svg>