<svg xmlns="http://www.w3.org/2000/svg" viewBox="0 0 250 250"><defs><style>.cls-1{fill:#306b4f;}.cls-2{fill:#a7c8ab;}</style></defs><title>Fichier 2</title><g id="Calque_2" data-name="Calque 2"><g id="Calque_1-2" data-name="Calque 1"><circle class="cls-1" cx="125" cy="125" r="125"/><g id="Calque_2-2" data-name="Calque 2"><g id="svg2"><g id="layer1"><g id="g2834"><rect id="rect2816" class="cls-2" x="101.9" y="54.62" width="47.66" height="47.66" transform="translate(-18.65 111.88) rotate(-45)"/><path id="path2820" class="cls-2" d="M133.66,61.11a24.43,24.43,0,1,1-24.43-24.43,24.43,24.43,0,0,1,24.43,24.43Z"/><path id="path2822" class="cls-2" d="M167,60.8a24.43,24.43,0,1,1-24.43-24.43A24.43,24.43,0,0,1,167,60.8Z"/></g><g id="g2839"><rect id="rect2841" class="cls-2" x="101.9" y="146.72" width="47.66" height="47.66" transform="translate(-83.77 138.86) rotate(-45)"/><path id="path2843" class="cls-2" d="M133.66,187.89a24.43,24.43,0,1,0-24.43,24.43,24.43,24.43,0,0,0,24.43-24.43Z"/><path id="path2845" class="cls-2" d="M167,188.2a24.43,24.43,0,1,0-24.43,24.43A24.43,24.43,0,0,0,167,188.2Z"/></g><g id="g2859"><rect id="rect2861" class="cls-2" x="144.13" y="100.95" width="47.66" height="47.66" transform="translate(-39.04 155.32) rotate(-45)"/><path id="path2863" class="cls-2" d="M185.3,132.72a24.43,24.43,0,1,1,24.43-24.43,24.43,24.43,0,0,1-24.43,24.43Z"/><path id="path2865" class="cls-2" d="M185.61,166A24.43,24.43,0,1,1,210,141.58,24.43,24.43,0,0,1,185.61,166Z"/></g><g id="g2867"><rect id="rect2869" class="cls-2" x="58.21" y="100.96" width="47.66" height="47.66" transform="translate(-64.21 94.56) rotate(-45)"/><path id="path2871" class="cls-2" d="M64.7,132.72a24.43,24.43,0,1,0-24.43-24.43A24.43,24.43,0,0,0,64.7,132.72Z"/><path id="path2873" class="cls-2" d="M64.39,166A24.43,24.43,0,1,0,40,141.58,24.43,24.43,0,0,0,64.39,166Z"/></g></g></g></g></g></g></svg>