<svg xmlns="http://www.w3.org/2000/svg" viewBox="0 0 79.79 80"><title>Fichier 1</title><g id="Calque_2" data-name="Calque 2"><g id="Calque_1-2" data-name="Calque 1"><path d="M43.13,38.65A3.8,3.8,0,0,0,40,42.52c0,3.59,3.76,6.31,3.92,6.43a1,1,0,0,0,.58.18h.15c.19,0,4.8-.74,6.41-4A3.8,3.8,0,0,0,50,40.29,3.41,3.41,0,0,0,46.43,40,3.42,3.42,0,0,0,43.13,38.65Zm5.67,3.26a1.81,1.81,0,0,1,.44,2.36c-.91,1.83-3.5,2.57-4.51,2.79-.79-.66-2.77-2.5-2.76-4.53a1.81,1.81,0,0,1,1.47-1.9l.25,0a1.53,1.53,0,0,1,1.43,1.19,1,1,0,0,0,1.65.4A1.49,1.49,0,0,1,48.8,41.91Z"/><path d="M6.86,30.15c1.85,3.08,6.5,3.43,6.69,3.44h.07a1,1,0,0,0,.64-.23c.15-.13,3.72-3.13,3.41-6.71A3.8,3.8,0,0,0,14.23,23a3.42,3.42,0,0,0-3.18,1.6,3.42,3.42,0,0,0-3.51.56A3.8,3.8,0,0,0,6.86,30.15Zm2-3.42a1.37,1.37,0,0,1,.9-.35,1.79,1.79,0,0,1,1.14.47,1,1,0,0,0,1.62-.52A1.49,1.49,0,0,1,14.07,25a1.81,1.81,0,0,1,1.61,1.78c.17,2-1.65,4-2.39,4.73-1-.15-3.67-.69-4.71-2.43A1.81,1.81,0,0,1,8.83,26.73Z"/><path d="M69.12,22.75A3.8,3.8,0,0,0,64.64,25c-1.52,3.25.78,7.31.88,7.48a1,1,0,0,0,.58.46,12,12,0,0,0,3.08.41A7,7,0,0,0,73.58,32a3.8,3.8,0,0,0,1.07-4.87,3.42,3.42,0,0,0-3.1-1.74A3.42,3.42,0,0,0,69.12,22.75Zm3.79,5.32a1.81,1.81,0,0,1-.58,2.33c-1.59,1.28-4.26.87-5.26.66-.45-.92-1.48-3.41-.61-5.26a1.81,1.81,0,0,1,2.12-1.12,1.49,1.49,0,0,1,1,1.76,1,1,0,0,0,1.34,1A1.5,1.5,0,0,1,72.91,28.07Z"/><path d="M9.78,66.46a3.41,3.41,0,0,0-2.62,2.41,3.43,3.43,0,0,0-3.23,1.5,3.8,3.8,0,0,0,.7,4.94A7.49,7.49,0,0,0,9.77,77,11.76,11.76,0,0,0,12,76.79a1,1,0,0,0,.62-.41c.11-.16,2.72-4,1.45-7.39A3.81,3.81,0,0,0,9.78,66.46Zm1.41,8.44c-1,.14-3.72.34-5.2-1.05a1.81,1.81,0,0,1-.4-2.37,1.36,1.36,0,0,1,1.17-.63,2,2,0,0,1,.83.2A1,1,0,0,0,9,70.1a1.5,1.5,0,0,1,1.17-1.68,1.81,1.81,0,0,1,2,1.28C12.92,71.61,11.71,74,11.19,74.9Z"/><path d="M9.7,4.36a3.44,3.44,0,0,0,2.05,6H12a3.44,3.44,0,1,0-2.28-6ZM12.92,8a1.44,1.44,0,0,1-1,.35,1.42,1.42,0,0,1-1-.48,1.44,1.44,0,1,1,2,.13Z"/><path d="M32.55,37.7A3.44,3.44,0,0,0,35.13,32h0a3.44,3.44,0,1,0-2.8,5.7Zm-1-4.51a1.43,1.43,0,0,1,.95-.36h.09a1.44,1.44,0,1,1-1,.36Z"/><path d="M3.44,55.43A3.44,3.44,0,0,0,6,49.72H6a3.44,3.44,0,1,0-2.8,5.7Zm-1-4.52a1.44,1.44,0,1,1-.13,2A1.43,1.43,0,0,1,2.48,50.91Z"/><path d="M23.84,3.75a1,1,0,0,0-1.32,1.5c10.41,9.17,11.54,20.3,11.55,20.41a1,1,0,0,0,1,.91h.09a1,1,0,0,0,.91-1.08C36,25,34.88,13.47,23.84,3.75Z"/><path d="M59.22,3.24c-12.44,8-11.89,21.62-11.86,22.2a1,1,0,0,0,1,.95h.05a1,1,0,0,0,.95-1.05c0-.13-.53-13,10.95-20.42a1,1,0,1,0-1.08-1.68Z"/><path d="M15.11,17.86a1,1,0,0,0,0,2c6.53,0,10.3,6.8,10.34,6.87a1,1,0,0,0,1.76-1c-.17-.32-4.36-7.91-12.09-7.92Z"/><path d="M68.74,17.88c-8.11-1.9-13.83,7.21-14.07,7.6a1,1,0,0,0,1.7,1c.05-.08,5.21-8.28,11.91-6.7a1,1,0,1,0,.46-1.95Z"/><path d="M67.39,75.84h0A3.42,3.42,0,0,0,69.75,77H70a3.44,3.44,0,1,0-2.58-1.17ZM69,72.49a1.45,1.45,0,0,1,1-.36,1.42,1.42,0,0,1,1,.48,1.44,1.44,0,1,1-2-.13Z"/><path d="M75.23,11.76h.22a3.44,3.44,0,1,0-2.58-1.16h0A3.42,3.42,0,0,0,75.23,11.76ZM74.5,7.25a1.44,1.44,0,0,1,1.9,2.16,1.46,1.46,0,0,1-1,.35,1.44,1.44,0,0,1-.86-2.51Z"/><path d="M71.72,54.41a3.41,3.41,0,1,0-.22,0Zm-1.44-3.53a1.44,1.44,0,0,1,1.43-1.35h.09a1.44,1.44,0,1,1-1.52,1.34Z"/><path d="M46.78,53.93A1,1,0,0,0,45.88,55c0,.49,1.19,12,12.22,21.74a1,1,0,0,0,1.32-1.5C49,66.08,47.88,55,47.87,54.84A1,1,0,0,0,46.78,53.93Z"/><path d="M34.58,55.07a1,1,0,0,0-2,.1c0,.13.5,13.06-10.95,20.42a1,1,0,1,0,1.08,1.68C35.16,69.27,34.61,55.65,34.58,55.07Z"/><path d="M66.83,60.65c-6.53,0-10.3-6.8-10.34-6.87a1,1,0,0,0-1.76,1c.17.32,4.36,7.91,12.1,7.92h0a1,1,0,0,0,0-2Z"/><path d="M27.26,55a1,1,0,0,0-1.7-1c-.05.08-5.21,8.27-11.91,6.7a1,1,0,0,0-.46,1.95,9.71,9.71,0,0,0,2.23.26C22.34,62.89,27,55.38,27.26,55Z"/><path d="M5.18,40.64c-.39,0-.73-.61-1.17-1.48-.55-1.09-1.31-2.58-3-2.58a1,1,0,0,0,0,2c.39,0,.73.61,1.17,1.48.55,1.09,1.31,2.58,3,2.58s2.4-1.49,3-2.58c.44-.87.78-1.48,1.17-1.48s.73.61,1.17,1.48c.55,1.09,1.31,2.58,3,2.58s2.4-1.49,3-2.58c.44-.87.78-1.48,1.17-1.48s.73.61,1.17,1.48c.55,1.09,1.31,2.58,3,2.58s2.4-1.49,3-2.58c.44-.87.78-1.48,1.17-1.48a1,1,0,0,0,0-2c-1.65,0-2.4,1.49-3,2.58-.44.87-.78,1.48-1.17,1.48s-.73-.62-1.17-1.48c-.55-1.09-1.31-2.58-3-2.58s-2.4,1.49-3,2.58c-.44.87-.78,1.48-1.17,1.48s-.73-.61-1.17-1.48c-.55-1.09-1.31-2.58-3-2.58s-2.4,1.49-3,2.58C5.9,40,5.56,40.64,5.18,40.64Z"/><path d="M78.79,36.58c-1.65,0-2.4,1.49-3,2.58-.44.87-.78,1.48-1.17,1.48s-.73-.62-1.17-1.48c-.55-1.09-1.31-2.58-3-2.58s-2.4,1.49-3,2.58c-.44.87-.78,1.48-1.17,1.48s-.73-.61-1.17-1.48c-.55-1.09-1.31-2.58-3-2.58s-2.4,1.49-3,2.58c-.44.87-.78,1.48-1.17,1.48S57.45,40,57,39.16c-.55-1.09-1.31-2.58-3-2.58a1,1,0,0,0,0,2c.39,0,.73.61,1.17,1.48.55,1.09,1.31,2.58,3,2.58s2.4-1.49,3-2.58c.44-.87.78-1.48,1.17-1.48s.73.61,1.17,1.48c.55,1.09,1.31,2.58,3,2.58s2.4-1.49,3-2.58c.44-.87.78-1.48,1.17-1.48s.73.61,1.17,1.48c.55,1.09,1.31,2.58,3,2.58s2.4-1.49,3-2.58c.44-.87.78-1.48,1.17-1.48a1,1,0,1,0,0-2Z"/><path d="M41.55,22.16c-1.09.54-2.59,1.28-2.59,2.9a1,1,0,0,0,2,0c0-.38.78-.77,1.47-1.11,1.09-.54,2.59-1.28,2.59-2.9s-1.49-2.36-2.59-2.9C41.75,17.81,41,17.43,41,17s.78-.77,1.47-1.11C43.53,15.4,45,14.66,45,13s-1.49-2.36-2.59-2.9C41.75,9.8,41,9.41,41,9s.61-.68,1.47-1.11C43.53,7.38,45,6.64,45,5s-1.49-2.36-2.59-2.9C41.58,1.68,41,1.36,41,1a1,1,0,0,0-2,0c0,1.63,1.49,2.36,2.59,2.9C42.42,4.33,43,4.66,43,5s-.61.69-1.47,1.11C40.46,6.67,39,7.41,39,9s1.49,2.36,2.59,2.9c.69.34,1.47.73,1.47,1.11s-.78.77-1.47,1.11C40.46,14.69,39,15.42,39,17s1.49,2.36,2.59,2.9c.69.34,1.47.73,1.47,1.11S42.25,21.82,41.55,22.16Z"/><path d="M40.54,76.1C39.45,76.64,38,77.37,38,79a1,1,0,0,0,2,0c0-.38.78-.77,1.47-1.11C42.52,77.35,44,76.61,44,75s-1.49-2.36-2.59-2.9C40.74,71.75,40,71.36,40,71s.78-.77,1.47-1.11C42.52,69.33,44,68.6,44,67s-1.49-2.36-2.59-2.9C40.74,63.73,40,63.34,40,63s.61-.68,1.47-1.11c1.09-.54,2.59-1.28,2.59-2.9s-1.49-2.36-2.59-2.9c-.86-.43-1.47-.76-1.47-1.11a1,1,0,1,0-2,0c0,1.63,1.49,2.36,2.59,2.9.86.43,1.47.76,1.47,1.11s-.61.69-1.47,1.11C39.45,60.6,38,61.34,38,63s1.49,2.36,2.59,2.9c.69.34,1.47.73,1.47,1.11s-.78.77-1.47,1.11C39.45,68.62,38,69.36,38,71s1.49,2.36,2.59,2.9c.69.34,1.47.73,1.47,1.11S41.23,75.76,40.54,76.1Z"/></g></g></svg>