<svg xmlns="http://www.w3.org/2000/svg" viewBox="0 0 54.58 80"><title>Fichier 1</title><g id="Calque_2" data-name="Calque 2"><g id="Calque_1-2" data-name="Calque 1"><path d="M27.28,80h0a1,1,0,0,0,.78-.37A210.71,210.71,0,0,0,41.28,60.92c8.82-14.11,13.3-25.43,13.3-33.62A27.29,27.29,0,1,0,0,27.29C0,45.17,25.42,78.21,26.5,79.61A1,1,0,0,0,27.28,80Zm0-78A25.32,25.32,0,0,1,52.58,27.29c0,16.85-20.9,44.48-25.27,50.08C23,71.59,2,42.79,2,27.29A25.32,25.32,0,0,1,27.29,2Z"/><path d="M37.75,26.46A10.46,10.46,0,1,0,27.29,36.92,10.48,10.48,0,0,0,37.75,26.46ZM27.29,34.92a8.46,8.46,0,1,1,8.46-8.46A8.47,8.47,0,0,1,27.29,34.92Z"/></g></g></svg>