<svg xmlns="http://www.w3.org/2000/svg" viewBox="0 0 80 80"><defs><style>.cls-1{fill:#fff;}</style></defs><title>Fichier 1</title><g id="Calque_2" data-name="Calque 2"><g id="Calque_1-2" data-name="Calque 1"><g id="Calque_2-2" data-name="Calque 2"><g id="Calque_1-2-2" data-name="Calque 1-2"><path class="cls-1" d="M18.18,46.54c-3.61,0-6.55,2.45-6.55,5.48s2.93,5.48,6.55,5.48S24.73,55,24.73,52s-2.9-5.46-6.5-5.48Zm0,8.92c-2.28,0-4.12-1.54-4.12-3.45s1.85-3.45,4.12-3.45S22.3,50.11,22.3,52s-1.79,3.43-4,3.45Z"/><path class="cls-1" d="M61.82,46.54c-3.61,0-6.55,2.45-6.55,5.48s2.93,5.48,6.55,5.48S68.36,55,68.36,52s-2.9-5.46-6.5-5.48Zm0,8.92c-2.28,0-4.12-1.54-4.12-3.45s1.85-3.45,4.12-3.45,4.12,1.54,4.12,3.45-1.79,3.43-4,3.45Z"/><path class="cls-1" d="M31.15,14.09h17.7c2.47,0,4.48-1.66,4.48-3.73t0,0c0-2.06-2-3.72-4.48-3.75H31.15c-2.48,0-4.48,1.68-4.48,3.75S28.68,14.09,31.15,14.09Zm0-5.48h17.7a1.91,1.91,0,0,1,2.06,1.7s0,0,0,0a2,2,0,0,1-2.06,1.72H31.15a1.91,1.91,0,0,1-2.06-1.72A1.91,1.91,0,0,1,31.15,8.62Z"/><path class="cls-1" d="M1.21,68.95l15.64.81L8.73,78.38A.91.91,0,0,0,9,79.8H9a2,2,0,0,0,.73.2,1.18,1.18,0,0,0,1-.41l1.09-1.22H68.12l1.09,1.22a1.61,1.61,0,0,0,1,.41,2,2,0,0,0,.73-.2,1,1,0,0,0,.24-1.42L63,69.76l15.88-.81a1.1,1.1,0,0,0,1.09-1V62.76a1,1,0,0,0-1.06-1H77.09v-46c0-.2.36-3.85-3.88-7.71C67.39,2.74,56.12,0,39.88,0S12.37,2.64,6.55,8a10.36,10.36,0,0,0-3.88,7.6V61.75H1.21A1.09,1.09,0,0,0,0,62.64a.8.8,0,0,0,0,.13v5.17A1.45,1.45,0,0,0,1.21,68.95Zm12.48,7.4,2.06-2.23H64.24l2.06,2.13H13.7ZM60.24,70l2.06,2.23H17.58l2.18-2.33,20.12,1h.24Zm-55-29.61V21.29H39.27V40.35ZM41.7,21.29H74.79V40.35H41.7ZM8.49,9.33C12.12,6,20.61,2,40,2s27.76,4,31.51,7.3a8.26,8.26,0,0,1,3.27,6.29v3.75H5.21V15.61A8.26,8.26,0,0,1,8.49,9.33ZM5.21,42.38H74.79V61.75H5.21ZM2.55,63.78H77.69V67L40,68.95,2.55,67Z"/></g></g></g></g></svg>